<svg xmlns="http://www.w3.org/2000/svg" fill="none" viewBox="0 0 48 48"><path fill="#CCC" d="M21.597 31.347a.94.94 0 0 0-1.327-1.327.94.94 0 0 0 1.327 1.327ZM21.938 9.281v1.875a5.624 5.624 0 0 0 5.625 5.625 5.631 5.631 0 0 0 5.626-5.625V9.281a.937.937 0 1 0 0-1.875h-1.875a.937.937 0 1 0 0 1.875v1.875a3.75 3.75 0 1 1-7.5 0V9.281a.937.937 0 1 0 0-1.875h-1.876a.937.937 0 1 0 0 1.875Z"/><path fill="#CCC" d="M10.896 46.026a.935.935 0 0 0 1.325 0l2.879-2.88a4.34 4.34 0 0 0 1.259-3.517l1.032-.997a4.35 4.35 0 0 1 3.032-1.225h12.344a8.39 8.39 0 0 0 5.884-2.391.885.885 0 0 0 .067-.072l8.398-10.085a3.755 3.755 0 0 0-.445-5.286 3.76 3.76 0 0 0-5.262.42l-.907.938V2.625a.938.938 0 0 0-.938-.938H15.469a.938.938 0 0 0-.937.938V23.63c-3.631.762-6.51 3.015-8.061 6.31a4.33 4.33 0 0 0-3.301 1.272l-2.894 2.88a.938.938 0 0 0-.001 1.328l10.62 10.606Zm27.73-42.464V22.87l-2.713 2.806a3.767 3.767 0 0 0-2.912-1.393h-10.87a.518.518 0 0 1-.19-.04 12.114 12.114 0 0 0-4.596-.898c-.314 0-.627.012-.938.032V3.562h22.22Zm-23.022 21.78c1.896-.273 3.793-.112 5.632.637.292.118.594.178.895.178h10.87a1.88 1.88 0 0 1 1.875 1.875 1.877 1.877 0 0 1-1.875 1.875h-8.156a.938.938 0 0 0 0 1.875H33a3.754 3.754 0 0 0 3.717-4.242 18458.815 18458.815 0 0 0 6.1-6.31 1.881 1.881 0 0 1 2.643-.224c.79.668.89 1.853.219 2.648l-8.37 10.052a6.523 6.523 0 0 1-4.543 1.826H20.423a6.214 6.214 0 0 0-4.334 1.75l-.413.4a4.372 4.372 0 0 0-.576-.71l-5.758-5.758a4.379 4.379 0 0 0-1.035-.765c1.433-2.825 3.991-4.626 7.296-5.106ZM4.494 32.54a2.486 2.486 0 0 1 3.522 0l5.759 5.759c.965.963.982 2.54 0 3.521l-2.218 2.217-9.292-9.28 2.23-2.217Z"/></svg>