<svg xmlns="http://www.w3.org/2000/svg" fill="none" viewBox="0 0 48 48"><g fill="#CCC" clip-path="url(#a)"><path d="M31.5 31.5a.938.938 0 1 0 0 1.876.938.938 0 0 0 0-1.876ZM18.75 30.563a.938.938 0 0 1 0-1.875c.332 0 .683.17 1.014.49a.937.937 0 1 0 1.304-1.348c-.476-.46-.952-.72-1.38-.863v-1.092a.937.937 0 1 0-1.875 0v1.099a2.817 2.817 0 0 0-1.875 2.651 2.816 2.816 0 0 0 2.812 2.813.939.939 0 0 1 0 1.874c-.4 0-.833-.252-1.218-.709a.937.937 0 1 0-1.435 1.207c.502.596 1.09 1.011 1.715 1.22v1.095a.937.937 0 1 0 1.875 0v-1.099a2.818 2.818 0 0 0 1.875-2.651 2.816 2.816 0 0 0-2.812-2.813ZM11.25 15.563c.518 0 .938-.42.938-.938v-3.75a.937.937 0 1 0-1.876 0v3.75c0 .518.42.938.938.938Z"/><path d="M44.25 22.125v-7.5a4.693 4.693 0 0 0-4.688-4.688h-5.25V2.814A2.816 2.816 0 0 0 31.5 0H14.062a2.816 2.816 0 0 0-2.812 2.813v3.374H8.437A2.816 2.816 0 0 0 5.626 9v.938h-.938A4.693 4.693 0 0 0 0 14.625v28.688A4.693 4.693 0 0 0 4.688 48h28.687a4.695 4.695 0 0 0 4.593-3.75h1.594a4.693 4.693 0 0 0 4.688-4.688v-2.437h.938A2.816 2.816 0 0 0 48 34.312v-8.437a3.754 3.754 0 0 0-3.75-3.75Zm1.875 3.75c0 1.036-.84 1.875-1.875 1.875V24c1.034 0 1.875.841 1.875 1.875Zm-6.563-14.063a2.816 2.816 0 0 1 2.813 2.813V27.75h-4.313v-5.625a4.695 4.695 0 0 0-3.75-4.593v-5.72h5.25Zm-26.437-9c0-.517.42-.937.938-.937H31.5c.517 0 .938.42.938.938v14.624h-4.313V9a2.816 2.816 0 0 0-2.813-2.813H13.126V2.813ZM22.5 17.438V8.063h2.813c.517 0 .937.42.937.937v8.438H22.5Zm-5.625 0V8.063h3.75v9.374h-3.75ZM7.5 9c0-.517.42-.938.938-.938H15v9.376H7.5V9Zm-2.813 2.813h.938v5.624h-.737c-1.55 0-3.013-1.122-3.013-2.812a2.816 2.816 0 0 1 2.813-2.813Zm28.688 34.312H4.687a2.816 2.816 0 0 1-2.812-2.813V18.317a5.049 5.049 0 0 0 3.013.995h28.487a2.816 2.816 0 0 1 2.813 2.813v5.625h-6.563a2.816 2.816 0 0 0-2.813 2.813v3.75a2.816 2.816 0 0 0 2.813 2.812h6.563v6.188a2.816 2.816 0 0 1-2.813 2.812Zm9-6.563a2.816 2.816 0 0 1-2.813 2.813h-1.5v-5.25h4.313v2.438Zm2.813-4.312H29.624a.938.938 0 0 1-.938-.938v-3.75c0-.517.42-.937.938-.937H44.25c.67 0 1.311-.175 1.875-.502v5.19c0 .517-.42.937-.938.937Z"/><path d="M39.563 31.5H35.25a.937.937 0 1 0 0 1.875h4.313a.937.937 0 1 0 0-1.875Z"/></g><defs><clipPath id="a"><path fill="#fff" d="M0 0h48v48H0z"/></clipPath></defs></svg>