<svg xmlns="http://www.w3.org/2000/svg" fill="none" viewBox="0 0 48 48"><g fill="#CCC" clip-path="url(#a)"><path d="M10.875 38.625a2.816 2.816 0 0 0-2.813 2.813 2.816 2.816 0 0 0 2.813 2.812 2.816 2.816 0 0 0 2.813-2.813 2.816 2.816 0 0 0-2.813-2.812Zm0 3.75a.938.938 0 1 1 .002-1.877.938.938 0 0 1-.002 1.877Z"/><path d="M45.188 38.625h-1.5v-20.25a.937.937 0 0 0-.938-.938h-4.688V4.688a.937.937 0 0 0-.937-.937h-18.75a.937.937 0 0 0-.938.938v33.937h-.632a6.524 6.524 0 0 0-3.117-3.118V2.813A2.816 2.816 0 0 0 10.874 0H2.812A2.816 2.816 0 0 0 0 2.813a2.816 2.816 0 0 0 2.813 2.812h5.25v29.882a6.577 6.577 0 0 0-3.75 5.93A6.57 6.57 0 0 0 10.875 48a6.576 6.576 0 0 0 5.93-3.75h28.383A2.816 2.816 0 0 0 48 41.437a2.816 2.816 0 0 0-2.813-2.812Zm-3.376 0h-22.5V19.312h6.563v9.938a.938.938 0 0 0 1.5.75l3.188-2.39L33.75 30a.937.937 0 0 0 1.5-.75v-9.938h6.563v19.313ZM27.75 19.312h5.625v8.063l-2.25-1.688a.937.937 0 0 0-1.125 0l-2.25 1.688v-8.063ZM25.875 5.626h3.75v5.373l-1.355-.903a.935.935 0 0 0-1.04 0l-1.355.903V5.625Zm-1.875 0v7.125a.938.938 0 0 0 1.457.78l2.293-1.528 2.293 1.528a.938.938 0 0 0 1.457-.78V5.625h4.688v11.813H19.311V5.624H24ZM2.812 3.75a.938.938 0 0 1 0-1.875h8.063c.517 0 .938.42.938.938v32.13a6.602 6.602 0 0 0-1.876 0V4.688A.937.937 0 0 0 9 3.75H2.812Zm8.063 42.375a4.693 4.693 0 0 1-4.688-4.688 4.688 4.688 0 0 1 9.375 0c0 2.62-2.13 4.688-4.687 4.688Zm34.313-3.75H17.37a6.602 6.602 0 0 0 0-1.875h27.817a.938.938 0 0 1 0 1.875Z"/><path d="M39 36.75c.518 0 .938-.42.938-.938v-1.874a.937.937 0 1 0-1.876 0v1.874c0 .518.42.938.938.938ZM39 29.25a.938.938 0 1 1 0 1.876.938.938 0 0 1 0-1.876ZM35.25 33a.937.937 0 0 0-.938.938v1.874a.937.937 0 1 0 1.876 0v-1.874A.937.937 0 0 0 35.25 33Z"/></g><defs><clipPath id="a"><path fill="#fff" d="M0 0h48v48H0z"/></clipPath></defs></svg>