<svg xmlns="http://www.w3.org/2000/svg" fill="none" viewBox="0 0 48 48"><path fill="#CCC" d="M24.938 7.125a.938.938 0 1 0 0 1.876.938.938 0 0 0 0-1.876ZM21.188 7.125h-7.125a.937.937 0 1 0 0 1.875h7.124a.937.937 0 1 0 0-1.875ZM35.813 7.125h-7.126a.937.937 0 1 0 0 1.875h7.125a.937.937 0 1 0 0-1.875Z"/><path fill="#CCC" d="M.938 42.75a.937.937 0 1 0 0 1.875h46.124a.937.937 0 1 0 0-1.875h-.937V13.687a2.816 2.816 0 0 0-2.813-2.812h-.937V6.187a2.816 2.816 0 0 0-2.813-2.812h-29.25A2.816 2.816 0 0 0 7.5 6.188v4.687h-.938a2.816 2.816 0 0 0-2.812 2.813v3.528L.099 24.518a.95.95 0 0 0-.099.42v1.875c0 1.479.707 2.868 1.875 3.748V42.75H.937Zm2.344-13.5a2.824 2.824 0 0 1-1.407-2.438v-.937H7.5v.938a2.816 2.816 0 0 1-4.218 2.436Zm10.89-10.875L14.876 24H9.5l.703-5.625h3.97ZM44.25 27.75H31.78a4.7 4.7 0 0 0 .095-.938v-1.875a.946.946 0 0 0-.099-.419l-3.072-6.143H44.25v9.375Zm-17.642-9.375L29.421 24H24.17l-1.407-5.625h3.845Zm-17.233 7.5H15v.938a2.816 2.816 0 0 1-2.813 2.812 2.821 2.821 0 0 1-2.812-2.813v-.937Zm7.5 0H22.5v.938a2.816 2.816 0 0 1-2.813 2.812 2.816 2.816 0 0 1-2.812-2.813v-.937Zm3.955-7.5L22.237 24h-5.472l-.703-5.625h4.768ZM9.375 30.555a4.665 4.665 0 0 0 2.813.945 4.683 4.683 0 0 0 3.75-1.878 4.683 4.683 0 0 0 6.562.938v6.565H9.375v-6.57Zm15-4.68H30v.938a2.814 2.814 0 0 1-2.813 2.812 2.816 2.816 0 0 1-2.812-2.813v-.937ZM39 42.75h-3.75v-7.5H39v7.5Zm1.875 0v-8.438a.937.937 0 0 0-.938-.937h-5.624a.937.937 0 0 0-.938.938v8.437H30V30.561a4.7 4.7 0 0 0 .936-.936H44.25V42.75h-3.375ZM9.375 6.187c0-.517.42-.937.938-.937h29.25c.517 0 .937.42.937.938v4.687H9.375V6.187Zm-3.75 7.5c0-.517.42-.937.938-.937h36.75c.517 0 .937.42.937.938V16.5H5.625v-2.813Zm-.358 4.688h3.046L7.61 24H2.454l2.813-5.625ZM3.75 31.405a4.663 4.663 0 0 0 3.75-.845v7.503c0 .517.42.937.938.937h15c.517 0 .937-.42.937-.938V30.56a4.663 4.663 0 0 0 3.75.845V42.75H3.75V31.405Z"/></svg>